<svg width="302" height="69" viewBox="0 0 302 69" fill="none" xmlns="http://www.w3.org/2000/svg">
<path d="M32 1.5H270C286.845 1.5 300.5 15.1553 300.5 32V37C300.5 53.8447 286.845 67.5 270 67.5H32C15.1553 67.5 1.5 53.8447 1.5 37V32C1.5 15.1553 15.1553 1.5 32 1.5Z" fill="#E5E7F8" stroke="#5123D5" stroke-width="3"/>
<path d="M122.268 37.9248H126.647C126.56 39.3604 126.164 40.6348 125.461 41.748C124.768 42.8613 123.796 43.7305 122.546 44.3555C121.306 44.9805 119.812 45.293 118.063 45.293C116.696 45.293 115.471 45.0586 114.387 44.5898C113.303 44.1113 112.375 43.4277 111.604 42.5391C110.842 41.6504 110.261 40.5762 109.86 39.3164C109.46 38.0566 109.26 36.6455 109.26 35.083V33.6035C109.26 32.041 109.465 30.6299 109.875 29.3701C110.295 28.1006 110.891 27.0215 111.662 26.1328C112.443 25.2441 113.376 24.5605 114.46 24.082C115.544 23.6035 116.755 23.3643 118.093 23.3643C119.87 23.3643 121.369 23.6865 122.59 24.3311C123.82 24.9756 124.772 25.8643 125.446 26.9971C126.13 28.1299 126.54 29.4189 126.677 30.8643H122.282C122.233 30.0049 122.062 29.2773 121.77 28.6816C121.477 28.0762 121.032 27.6221 120.437 27.3193C119.851 27.0068 119.069 26.8506 118.093 26.8506C117.36 26.8506 116.721 26.9873 116.174 27.2607C115.627 27.5342 115.168 27.9492 114.797 28.5059C114.426 29.0625 114.147 29.7656 113.962 30.6152C113.786 31.4551 113.698 32.4414 113.698 33.5742V35.083C113.698 36.1865 113.781 37.1582 113.947 37.998C114.113 38.8281 114.367 39.5312 114.709 40.1074C115.061 40.6738 115.51 41.1035 116.057 41.3965C116.613 41.6797 117.282 41.8213 118.063 41.8213C118.981 41.8213 119.738 41.6748 120.334 41.3818C120.93 41.0889 121.384 40.6543 121.696 40.0781C122.019 39.502 122.209 38.7842 122.268 37.9248ZM133.386 22.5V45H129.167V22.5H133.386ZM132.785 36.5186H131.628C131.638 35.415 131.784 34.3994 132.067 33.4717C132.351 32.5342 132.756 31.7236 133.283 31.04C133.811 30.3467 134.44 29.8096 135.173 29.4287C135.915 29.0479 136.735 28.8574 137.634 28.8574C138.415 28.8574 139.123 28.9697 139.758 29.1943C140.402 29.4092 140.954 29.7607 141.413 30.249C141.882 30.7275 142.243 31.3574 142.497 32.1387C142.751 32.9199 142.878 33.8672 142.878 34.9805V45H138.63V34.9512C138.63 34.248 138.527 33.6963 138.322 33.2959C138.127 32.8857 137.839 32.5977 137.458 32.4316C137.087 32.2559 136.628 32.168 136.081 32.168C135.476 32.168 134.958 32.2803 134.528 32.5049C134.108 32.7295 133.771 33.042 133.518 33.4424C133.264 33.833 133.078 34.292 132.961 34.8193C132.844 35.3467 132.785 35.9131 132.785 36.5186ZM153.381 45.293C152.15 45.293 151.047 45.0977 150.07 44.707C149.094 44.3066 148.264 43.7549 147.58 43.0518C146.906 42.3486 146.389 41.5332 146.027 40.6055C145.666 39.668 145.485 38.6719 145.485 37.6172V37.0312C145.485 35.8301 145.656 34.7314 145.998 33.7354C146.34 32.7393 146.828 31.875 147.463 31.1426C148.107 30.4102 148.889 29.8486 149.807 29.458C150.725 29.0576 151.76 28.8574 152.912 28.8574C154.035 28.8574 155.031 29.043 155.9 29.4141C156.77 29.7852 157.497 30.3125 158.083 30.9961C158.679 31.6797 159.128 32.5 159.431 33.457C159.733 34.4043 159.885 35.459 159.885 36.6211V38.3789H147.287V35.5664H155.739V35.2441C155.739 34.6582 155.632 34.1357 155.417 33.6768C155.212 33.208 154.899 32.8369 154.479 32.5635C154.06 32.29 153.522 32.1533 152.868 32.1533C152.312 32.1533 151.833 32.2754 151.433 32.5195C151.032 32.7637 150.705 33.1055 150.451 33.5449C150.207 33.9844 150.021 34.502 149.895 35.0977C149.777 35.6836 149.719 36.3281 149.719 37.0312V37.6172C149.719 38.252 149.807 38.8379 149.982 39.375C150.168 39.9121 150.427 40.376 150.759 40.7666C151.101 41.1572 151.511 41.46 151.989 41.6748C152.478 41.8896 153.029 41.9971 153.645 41.9971C154.406 41.9971 155.114 41.8506 155.769 41.5576C156.433 41.2549 157.004 40.8008 157.482 40.1953L159.533 42.4219C159.201 42.9004 158.747 43.3594 158.171 43.7988C157.604 44.2383 156.921 44.5996 156.12 44.8828C155.319 45.1562 154.406 45.293 153.381 45.293ZM168.835 41.9971C169.353 41.9971 169.812 41.8994 170.212 41.7041C170.612 41.499 170.925 41.2158 171.149 40.8545C171.384 40.4834 171.506 40.0488 171.516 39.5508H175.485C175.476 40.6641 175.178 41.6553 174.592 42.5244C174.006 43.3838 173.22 44.0625 172.233 44.5605C171.247 45.0488 170.144 45.293 168.923 45.293C167.692 45.293 166.618 45.0879 165.7 44.6777C164.792 44.2676 164.035 43.7012 163.43 42.9785C162.824 42.2461 162.37 41.3965 162.067 40.4297C161.765 39.4531 161.613 38.4082 161.613 37.2949V36.8701C161.613 35.7471 161.765 34.7021 162.067 33.7354C162.37 32.7588 162.824 31.9092 163.43 31.1865C164.035 30.4541 164.792 29.8828 165.7 29.4727C166.608 29.0625 167.673 28.8574 168.894 28.8574C170.192 28.8574 171.33 29.1064 172.307 29.6045C173.293 30.1025 174.064 30.8154 174.621 31.7432C175.188 32.6611 175.476 33.75 175.485 35.0098H171.516C171.506 34.4824 171.394 34.0039 171.179 33.5742C170.974 33.1445 170.671 32.8027 170.271 32.5488C169.88 32.2852 169.396 32.1533 168.82 32.1533C168.205 32.1533 167.702 32.2852 167.312 32.5488C166.921 32.8027 166.618 33.1543 166.403 33.6035C166.188 34.043 166.037 34.5459 165.949 35.1123C165.871 35.6689 165.832 36.2549 165.832 36.8701V37.2949C165.832 37.9102 165.871 38.501 165.949 39.0674C166.027 39.6338 166.174 40.1367 166.389 40.5762C166.613 41.0156 166.921 41.3623 167.312 41.6162C167.702 41.8701 168.21 41.9971 168.835 41.9971ZM182.15 22.4854V45H177.932V22.4854H182.15ZM192.141 29.1504L185.256 37.002L181.564 40.7373L180.026 37.6904L182.956 33.9697L187.072 29.1504H192.141ZM187.761 45L183.073 37.6758L185.988 35.127L192.624 45H187.761Z" fill="#5123D5"/>
</svg>
