<svg width="726" height="279" viewBox="0 0 726 279" fill="none" xmlns="http://www.w3.org/2000/svg">
<path d="M45.24 133.2C31.72 133.2 21.4 129.76 14.28 122.88C7.24 115.92 3.72 106.28 3.72 93.96C3.72 81.08 7.16 71.12 14.04 64.08C21 57.04 31.36 53.52 45.12 53.52C49.84 53.52 54.04 53.88 57.72 54.6C61.48 55.32 65.08 56.28 68.52 57.48V74.4C61.56 71.52 54.24 70.08 46.56 70.08C38.56 70.08 32.68 72 28.92 75.84C25.24 79.68 23.4 85.72 23.4 93.96C23.4 101.8 25.36 107.56 29.28 111.24C33.2 114.92 39.04 116.76 46.8 116.76C50.56 116.76 54.28 116.44 57.96 115.8C61.64 115.08 65.2 114 68.64 112.56V129.6C65.28 130.72 61.72 131.6 57.96 132.24C54.2 132.88 49.96 133.2 45.24 133.2ZM78.4247 132V51.12H97.7447V79.32C99.9047 77.72 102.585 76.44 105.785 75.48C108.985 74.44 112.425 73.92 116.105 73.92C123.705 73.92 129.265 75.72 132.785 79.32C136.385 82.92 138.185 88.44 138.185 95.88V132H118.865V97.2C118.865 93.92 118.185 91.6 116.825 90.24C115.465 88.88 113.025 88.2 109.505 88.2C107.425 88.2 105.305 88.68 103.145 89.64C100.985 90.6 99.1847 91.8 97.7447 93.24V132H78.4247ZM179.569 133.2C169.649 133.2 161.689 130.76 155.689 125.88C149.689 120.92 146.689 113.48 146.689 103.56C146.689 94.52 149.169 87.32 154.129 81.96C159.089 76.6 166.529 73.92 176.449 73.92C185.489 73.92 192.489 76.24 197.449 80.88C202.409 85.52 204.889 91.76 204.889 99.6V109.8H164.569C165.449 113.56 167.489 116.2 170.689 117.72C173.969 119.16 178.409 119.88 184.009 119.88C187.129 119.88 190.289 119.6 193.489 119.04C196.769 118.48 199.489 117.76 201.649 116.88V129.48C198.929 130.76 195.689 131.68 191.929 132.24C188.169 132.88 184.049 133.2 179.569 133.2ZM164.569 98.64H188.089V96.12C188.089 93.32 187.249 91.12 185.569 89.52C183.889 87.84 181.049 87 177.049 87C172.409 87 169.169 87.96 167.329 89.88C165.489 91.72 164.569 94.64 164.569 98.64ZM244.714 133.2C234.554 133.2 226.594 130.72 220.834 125.76C215.154 120.8 212.314 113.4 212.314 103.56C212.314 93.56 215.274 86.12 221.194 81.24C227.194 76.36 235.154 73.92 245.074 73.92C249.234 73.92 252.834 74.24 255.874 74.88C258.994 75.44 261.994 76.4 264.874 77.76V91.44C260.394 89.28 255.154 88.2 249.154 88.2C243.554 88.2 239.274 89.32 236.314 91.56C233.434 93.8 231.994 97.8 231.994 103.56C231.994 108.92 233.354 112.84 236.074 115.32C238.794 117.72 243.114 118.92 249.034 118.92C254.874 118.92 260.194 117.72 264.994 115.32V129.6C262.114 130.88 258.994 131.8 255.634 132.36C252.354 132.92 248.714 133.2 244.714 133.2ZM274.831 132V51.12H294.151V93.36L312.751 75.12H334.711L311.911 98.76L336.031 132H315.511L299.791 108.96L294.151 114.48V132H274.831ZM387.259 153.12C384.379 153.12 381.899 152.96 379.819 152.64C377.819 152.4 375.819 151.88 373.819 151.08V137.64C375.179 138.12 376.419 138.44 377.539 138.6C378.739 138.76 379.939 138.84 381.139 138.84C384.419 138.84 386.859 138.24 388.459 137.04C390.139 135.92 391.819 133.88 393.499 130.92L367.939 75.12H388.219L403.219 111.24L417.979 75.12H438.139L416.419 127.32C414.259 132.52 411.859 137.04 409.219 140.88C406.579 144.8 403.499 147.8 399.979 149.88C396.459 152.04 392.219 153.12 387.259 153.12ZM469.823 133.2C458.863 133.2 450.783 130.68 445.583 125.64C440.383 120.52 437.783 113.16 437.783 103.56C437.783 94.04 440.383 86.72 445.583 81.6C450.863 76.48 458.943 73.92 469.823 73.92C480.783 73.92 488.863 76.48 494.062 81.6C499.343 86.72 501.983 94.04 501.983 103.56C501.983 113.16 499.383 120.52 494.183 125.64C488.983 130.68 480.863 133.2 469.823 133.2ZM469.823 118.08C474.303 118.08 477.503 116.96 479.423 114.72C481.343 112.48 482.303 108.76 482.303 103.56C482.303 98.36 481.343 94.64 479.423 92.4C477.503 90.16 474.303 89.04 469.823 89.04C465.423 89.04 462.263 90.16 460.343 92.4C458.423 94.64 457.463 98.36 457.463 103.56C457.463 108.76 458.423 112.48 460.343 114.72C462.263 116.96 465.423 118.08 469.823 118.08ZM531.344 133.2C524.624 133.2 519.384 131.32 515.624 127.56C511.864 123.72 509.984 118.16 509.984 110.88V75.12H529.304V109.8C529.304 113 530.064 115.36 531.584 116.88C533.184 118.32 535.544 119.04 538.664 119.04C540.984 119.04 543.184 118.56 545.264 117.6C547.344 116.64 549.064 115.44 550.424 114V75.12H569.744V132H551.744L551.144 127.2C548.824 128.96 546.024 130.4 542.744 131.52C539.464 132.64 535.664 133.2 531.344 133.2ZM581.979 132V75.12H600.339L600.939 80.4C603.419 78.88 606.499 77.52 610.179 76.32C613.859 75.04 617.539 74.24 621.219 73.92V88.44C619.139 88.68 616.819 89.08 614.259 89.64C611.779 90.12 609.379 90.72 607.059 91.44C604.819 92.16 602.899 92.92 601.299 93.72V132H581.979Z" fill="#5123D5"/>
<path d="M159.64 233.2C146.28 233.2 136.12 229.84 129.16 223.12C122.2 216.32 118.72 206.76 118.72 194.44C118.72 181.56 122.28 171.52 129.4 164.32C136.52 157.12 147 153.52 160.84 153.52C165.56 153.52 169.8 153.8 173.56 154.36C177.4 154.92 181.04 155.76 184.48 156.88V173.44C181.04 172.16 177.44 171.28 173.68 170.8C170 170.32 166.2 170.08 162.28 170.08C153.96 170.08 147.88 172.08 144.04 176.08C140.28 180 138.4 186.12 138.4 194.44C138.4 202.04 140.2 207.68 143.8 211.36C147.4 214.96 152.72 216.76 159.76 216.76C164.4 216.76 168.72 216.12 172.72 214.84V200.2H156.04V188.08H188.92V226.36C186.2 228.12 182.4 229.72 177.52 231.16C172.72 232.52 166.76 233.2 159.64 233.2ZM198.815 232V175.12H217.175L217.775 180.4C220.255 178.88 223.335 177.52 227.015 176.32C230.695 175.04 234.375 174.24 238.055 173.92V188.44C235.975 188.68 233.655 189.08 231.095 189.64C228.615 190.12 226.215 190.72 223.895 191.44C221.655 192.16 219.735 192.92 218.135 193.72V232H198.815ZM259.466 233.2C255.866 233.2 252.506 232.56 249.386 231.28C246.346 230 243.906 228.04 242.066 225.4C240.226 222.68 239.306 219.32 239.306 215.32C239.306 209.48 241.266 204.92 245.186 201.64C249.186 198.28 255.146 196.6 263.066 196.6H278.906V195.28C278.906 192.4 277.946 190.36 276.026 189.16C274.106 187.88 270.506 187.24 265.226 187.24C258.746 187.24 252.386 188.24 246.146 190.24V177.76C248.946 176.64 252.346 175.72 256.346 175C260.426 174.28 264.706 173.92 269.186 173.92C277.986 173.92 284.866 175.72 289.826 179.32C294.866 182.92 297.386 188.64 297.386 196.48V232H280.466L279.506 227.2C277.426 229.12 274.746 230.6 271.466 231.64C268.266 232.68 264.266 233.2 259.466 233.2ZM265.586 221.32C268.626 221.32 271.266 220.8 273.506 219.76C275.746 218.72 277.546 217.4 278.906 215.8V207.76H265.226C259.546 207.76 256.706 210.04 256.706 214.6C256.706 216.68 257.426 218.32 258.866 219.52C260.306 220.72 262.546 221.32 265.586 221.32ZM308.972 232V175.12H326.852L327.452 180.16C330.012 178.32 332.892 176.84 336.092 175.72C339.292 174.52 342.732 173.92 346.412 173.92C350.252 173.92 353.252 174.52 355.412 175.72C357.572 176.84 359.252 178.44 360.452 180.52C363.092 178.6 366.052 177.04 369.332 175.84C372.692 174.56 376.612 173.92 381.092 173.92C387.732 173.92 392.612 175.64 395.732 179.08C398.852 182.52 400.412 187.76 400.412 194.8V232H381.332V197.08C381.332 193.96 380.652 191.72 379.292 190.36C378.012 188.92 375.892 188.2 372.932 188.2C371.092 188.2 369.292 188.6 367.532 189.4C365.772 190.12 364.292 191.16 363.092 192.52C363.252 193.4 363.332 194.24 363.332 195.04C363.412 195.84 363.452 196.8 363.452 197.92V232H345.452V196.84C345.452 193.96 344.932 191.8 343.892 190.36C342.932 188.92 341.052 188.2 338.252 188.2C336.252 188.2 334.372 188.72 332.612 189.76C330.852 190.8 329.252 192 327.812 193.36V232H308.972ZM412.097 232V175.12H429.977L430.577 180.16C433.137 178.32 436.017 176.84 439.217 175.72C442.417 174.52 445.857 173.92 449.537 173.92C453.377 173.92 456.377 174.52 458.537 175.72C460.697 176.84 462.377 178.44 463.577 180.52C466.217 178.6 469.177 177.04 472.457 175.84C475.817 174.56 479.737 173.92 484.217 173.92C490.857 173.92 495.737 175.64 498.857 179.08C501.977 182.52 503.537 187.76 503.537 194.8V232H484.457V197.08C484.457 193.96 483.777 191.72 482.417 190.36C481.137 188.92 479.017 188.2 476.057 188.2C474.217 188.2 472.417 188.6 470.657 189.4C468.897 190.12 467.417 191.16 466.217 192.52C466.377 193.4 466.457 194.24 466.457 195.04C466.537 195.84 466.577 196.8 466.577 197.92V232H448.577V196.84C448.577 193.96 448.057 191.8 447.017 190.36C446.057 188.92 444.177 188.2 441.377 188.2C439.377 188.2 437.497 188.72 435.737 189.76C433.977 190.8 432.377 192 430.937 193.36V232H412.097ZM531.224 233.2C527.624 233.2 524.264 232.56 521.144 231.28C518.104 230 515.664 228.04 513.824 225.4C511.984 222.68 511.064 219.32 511.064 215.32C511.064 209.48 513.024 204.92 516.944 201.64C520.944 198.28 526.904 196.6 534.824 196.6H550.664V195.28C550.664 192.4 549.704 190.36 547.784 189.16C545.864 187.88 542.264 187.24 536.984 187.24C530.504 187.24 524.144 188.24 517.904 190.24V177.76C520.704 176.64 524.104 175.72 528.104 175C532.184 174.28 536.464 173.92 540.944 173.92C549.744 173.92 556.624 175.72 561.584 179.32C566.624 182.92 569.144 188.64 569.144 196.48V232H552.224L551.264 227.2C549.184 229.12 546.504 230.6 543.224 231.64C540.024 232.68 536.024 233.2 531.224 233.2ZM537.344 221.32C540.384 221.32 543.024 220.8 545.264 219.76C547.504 218.72 549.304 217.4 550.664 215.8V207.76H536.984C531.304 207.76 528.464 210.04 528.464 214.6C528.464 216.68 529.184 218.32 530.624 219.52C532.064 220.72 534.304 221.32 537.344 221.32ZM580.729 232V175.12H599.089L599.689 180.4C602.169 178.88 605.249 177.52 608.929 176.32C612.609 175.04 616.289 174.24 619.969 173.92V188.44C617.889 188.68 615.569 189.08 613.009 189.64C610.529 190.12 608.129 190.72 605.809 191.44C603.569 192.16 601.649 192.92 600.049 193.72V232H580.729Z" fill="#5123D5"/>
</svg>
