<svg width="293" height="78" viewBox="0 0 293 78" fill="none" xmlns="http://www.w3.org/2000/svg">
<circle cx="255.5" cy="18.5" r="18.5" fill="#127FFF"/>
<circle cx="274.5" cy="34.5" r="18.5" fill="#FFCD1C"/>
<line y1="-2" x2="20.3553" y2="-2" transform="matrix(0.514496 0.857493 -0.825901 0.563815 246 20)" stroke="white" stroke-width="4"/>
<line y1="-2" x2="30.5355" y2="-2" transform="matrix(0.835986 -0.54875 0.499722 0.866186 256.473 37.4545)" stroke="white" stroke-width="4"/>
<path d="M30.0938 48.1641V61.6875C29.5625 62.3281 28.7422 63.0234 27.6328 63.7734C26.5234 64.5078 25.0938 65.1406 23.3438 65.6719C21.5938 66.2031 19.4766 66.4688 16.9922 66.4688C14.7891 66.4688 12.7812 66.1094 10.9688 65.3906C9.15625 64.6562 7.59375 63.5859 6.28125 62.1797C4.98438 60.7734 3.98438 59.0547 3.28125 57.0234C2.57812 54.9766 2.22656 52.6406 2.22656 50.0156V47.8828C2.22656 45.2578 2.5625 42.9219 3.23438 40.875C3.92188 38.8281 4.89844 37.1016 6.16406 35.6953C7.42969 34.2891 8.9375 33.2188 10.6875 32.4844C12.4375 31.75 14.3828 31.3828 16.5234 31.3828C19.4922 31.3828 21.9297 31.8672 23.8359 32.8359C25.7422 33.7891 27.1953 35.1172 28.1953 36.8203C29.2109 38.5078 29.8359 40.4453 30.0703 42.6328H23.25C23.0781 41.4766 22.75 40.4688 22.2656 39.6094C21.7812 38.75 21.0859 38.0781 20.1797 37.5938C19.2891 37.1094 18.1328 36.8672 16.7109 36.8672C15.5391 36.8672 14.4922 37.1094 13.5703 37.5938C12.6641 38.0625 11.8984 38.7578 11.2734 39.6797C10.6484 40.6016 10.1719 41.7422 9.84375 43.1016C9.51562 44.4609 9.35156 46.0391 9.35156 47.8359V50.0156C9.35156 51.7969 9.52344 53.375 9.86719 54.75C10.2109 56.1094 10.7188 57.2578 11.3906 58.1953C12.0781 59.1172 12.9219 59.8125 13.9219 60.2812C14.9219 60.75 16.0859 60.9844 17.4141 60.9844C18.5234 60.9844 19.4453 60.8906 20.1797 60.7031C20.9297 60.5156 21.5312 60.2891 21.9844 60.0234C22.4531 59.7422 22.8125 59.4766 23.0625 59.2266V53.1797H16.6406V48.1641H30.0938ZM42.0938 46.1719V66H35.3438V40.6406H41.6953L42.0938 46.1719ZM49.7344 40.4766L49.6172 46.7344C49.2891 46.6875 48.8906 46.6484 48.4219 46.6172C47.9688 46.5703 47.5547 46.5469 47.1797 46.5469C46.2266 46.5469 45.3984 46.6719 44.6953 46.9219C44.0078 47.1562 43.4297 47.5078 42.9609 47.9766C42.5078 48.4453 42.1641 49.0156 41.9297 49.6875C41.7109 50.3594 41.5859 51.125 41.5547 51.9844L40.1953 51.5625C40.1953 49.9219 40.3594 48.4141 40.6875 47.0391C41.0156 45.6484 41.4922 44.4375 42.1172 43.4062C42.7578 42.375 43.5391 41.5781 44.4609 41.0156C45.3828 40.4531 46.4375 40.1719 47.625 40.1719C48 40.1719 48.3828 40.2031 48.7734 40.2656C49.1641 40.3125 49.4844 40.3828 49.7344 40.4766ZM65.8125 60.2812V48.9844C65.8125 48.1719 65.6797 47.4766 65.4141 46.8984C65.1484 46.3047 64.7344 45.8438 64.1719 45.5156C63.625 45.1875 62.9141 45.0234 62.0391 45.0234C61.2891 45.0234 60.6406 45.1562 60.0938 45.4219C59.5469 45.6719 59.125 46.0391 58.8281 46.5234C58.5312 46.9922 58.3828 47.5469 58.3828 48.1875H51.6328C51.6328 47.1094 51.8828 46.0859 52.3828 45.1172C52.8828 44.1484 53.6094 43.2969 54.5625 42.5625C55.5156 41.8125 56.6484 41.2266 57.9609 40.8047C59.2891 40.3828 60.7734 40.1719 62.4141 40.1719C64.3828 40.1719 66.1328 40.5 67.6641 41.1562C69.1953 41.8125 70.3984 42.7969 71.2734 44.1094C72.1641 45.4219 72.6094 47.0625 72.6094 49.0312V59.8828C72.6094 61.2734 72.6953 62.4141 72.8672 63.3047C73.0391 64.1797 73.2891 64.9453 73.6172 65.6016V66H66.7969C66.4688 65.3125 66.2188 64.4531 66.0469 63.4219C65.8906 62.375 65.8125 61.3281 65.8125 60.2812ZM66.7031 50.5547L66.75 54.375H62.9766C62.0859 54.375 61.3125 54.4766 60.6562 54.6797C60 54.8828 59.4609 55.1719 59.0391 55.5469C58.6172 55.9062 58.3047 56.3281 58.1016 56.8125C57.9141 57.2969 57.8203 57.8281 57.8203 58.4062C57.8203 58.9844 57.9531 59.5078 58.2188 59.9766C58.4844 60.4297 58.8672 60.7891 59.3672 61.0547C59.8672 61.3047 60.4531 61.4297 61.125 61.4297C62.1406 61.4297 63.0234 61.2266 63.7734 60.8203C64.5234 60.4141 65.1016 59.9141 65.5078 59.3203C65.9297 58.7266 66.1484 58.1641 66.1641 57.6328L67.9453 60.4922C67.6953 61.1328 67.3516 61.7969 66.9141 62.4844C66.4922 63.1719 65.9531 63.8203 65.2969 64.4297C64.6406 65.0234 63.8516 65.5156 62.9297 65.9062C62.0078 66.2812 60.9141 66.4688 59.6484 66.4688C58.0391 66.4688 56.5781 66.1484 55.2656 65.5078C53.9688 64.8516 52.9375 63.9531 52.1719 62.8125C51.4219 61.6562 51.0469 60.3438 51.0469 58.875C51.0469 57.5469 51.2969 56.3672 51.7969 55.3359C52.2969 54.3047 53.0312 53.4375 54 52.7344C54.9844 52.0156 56.2109 51.4766 57.6797 51.1172C59.1484 50.7422 60.8516 50.5547 62.7891 50.5547H66.7031ZM84.5625 45.8906V66H77.7891V40.6406H84.1406L84.5625 45.8906ZM83.625 52.4297H81.75C81.75 50.6641 81.9609 49.0391 82.3828 47.5547C82.8203 46.0547 83.4531 44.7578 84.2812 43.6641C85.125 42.5547 86.1641 41.6953 87.3984 41.0859C88.6328 40.4766 90.0625 40.1719 91.6875 40.1719C92.8125 40.1719 93.8438 40.3438 94.7812 40.6875C95.7188 41.0156 96.5234 41.5391 97.1953 42.2578C97.8828 42.9609 98.4141 43.8828 98.7891 45.0234C99.1641 46.1484 99.3516 47.5 99.3516 49.0781V66H92.6016V49.8281C92.6016 48.6719 92.4453 47.7812 92.1328 47.1562C91.8203 46.5312 91.375 46.0938 90.7969 45.8438C90.2344 45.5938 89.5547 45.4688 88.7578 45.4688C87.8828 45.4688 87.1172 45.6484 86.4609 46.0078C85.8203 46.3672 85.2891 46.8672 84.8672 47.5078C84.4453 48.1328 84.1328 48.8672 83.9297 49.7109C83.7266 50.5547 83.625 51.4609 83.625 52.4297ZM98.7188 51.6562L96.3047 51.9609C96.3047 50.3047 96.5078 48.7656 96.9141 47.3438C97.3359 45.9219 97.9531 44.6719 98.7656 43.5938C99.5938 42.5156 100.617 41.6797 101.836 41.0859C103.055 40.4766 104.461 40.1719 106.055 40.1719C107.273 40.1719 108.383 40.3516 109.383 40.7109C110.383 41.0547 111.234 41.6094 111.938 42.375C112.656 43.125 113.203 44.1094 113.578 45.3281C113.969 46.5469 114.164 48.0391 114.164 49.8047V66H107.391V49.8047C107.391 48.6328 107.234 47.7422 106.922 47.1328C106.625 46.5078 106.188 46.0781 105.609 45.8438C105.047 45.5938 104.375 45.4688 103.594 45.4688C102.781 45.4688 102.07 45.6328 101.461 45.9609C100.852 46.2734 100.344 46.7109 99.9375 47.2734C99.5312 47.8359 99.2266 48.4922 99.0234 49.2422C98.8203 49.9766 98.7188 50.7812 98.7188 51.6562ZM139.594 54.6797H146.602C146.461 56.9766 145.828 59.0156 144.703 60.7969C143.594 62.5781 142.039 63.9688 140.039 64.9688C138.055 65.9688 135.664 66.4688 132.867 66.4688C130.68 66.4688 128.719 66.0938 126.984 65.3438C125.25 64.5781 123.766 63.4844 122.531 62.0625C121.312 60.6406 120.383 58.9219 119.742 56.9062C119.102 54.8906 118.781 52.6328 118.781 50.1328V47.7656C118.781 45.2656 119.109 43.0078 119.766 40.9922C120.438 38.9609 121.391 37.2344 122.625 35.8125C123.875 34.3906 125.367 33.2969 127.102 32.5312C128.836 31.7656 130.773 31.3828 132.914 31.3828C135.758 31.3828 138.156 31.8984 140.109 32.9297C142.078 33.9609 143.602 35.3828 144.68 37.1953C145.773 39.0078 146.43 41.0703 146.648 43.3828H139.617C139.539 42.0078 139.266 40.8438 138.797 39.8906C138.328 38.9219 137.617 38.1953 136.664 37.7109C135.727 37.2109 134.477 36.9609 132.914 36.9609C131.742 36.9609 130.719 37.1797 129.844 37.6172C128.969 38.0547 128.234 38.7188 127.641 39.6094C127.047 40.5 126.602 41.625 126.305 42.9844C126.023 44.3281 125.883 45.9062 125.883 47.7188V50.1328C125.883 51.8984 126.016 53.4531 126.281 54.7969C126.547 56.125 126.953 57.25 127.5 58.1719C128.062 59.0781 128.781 59.7656 129.656 60.2344C130.547 60.6875 131.617 60.9141 132.867 60.9141C134.336 60.9141 135.547 60.6797 136.5 60.2109C137.453 59.7422 138.18 59.0469 138.68 58.125C139.195 57.2031 139.5 56.0547 139.594 54.6797ZM157.383 30V66H150.633V30H157.383ZM156.422 52.4297H154.57C154.586 50.6641 154.82 49.0391 155.273 47.5547C155.727 46.0547 156.375 44.7578 157.219 43.6641C158.062 42.5547 159.07 41.6953 160.242 41.0859C161.43 40.4766 162.742 40.1719 164.18 40.1719C165.43 40.1719 166.562 40.3516 167.578 40.7109C168.609 41.0547 169.492 41.6172 170.227 42.3984C170.977 43.1641 171.555 44.1719 171.961 45.4219C172.367 46.6719 172.57 48.1875 172.57 49.9688V66H165.773V49.9219C165.773 48.7969 165.609 47.9141 165.281 47.2734C164.969 46.6172 164.508 46.1562 163.898 45.8906C163.305 45.6094 162.57 45.4688 161.695 45.4688C160.727 45.4688 159.898 45.6484 159.211 46.0078C158.539 46.3672 158 46.8672 157.594 47.5078C157.188 48.1328 156.891 48.8672 156.703 49.7109C156.516 50.5547 156.422 51.4609 156.422 52.4297ZM189.375 66.4688C187.406 66.4688 185.641 66.1562 184.078 65.5312C182.516 64.8906 181.188 64.0078 180.094 62.8828C179.016 61.7578 178.188 60.4531 177.609 58.9688C177.031 57.4688 176.742 55.875 176.742 54.1875V53.25C176.742 51.3281 177.016 49.5703 177.562 47.9766C178.109 46.3828 178.891 45 179.906 43.8281C180.938 42.6562 182.188 41.7578 183.656 41.1328C185.125 40.4922 186.781 40.1719 188.625 40.1719C190.422 40.1719 192.016 40.4688 193.406 41.0625C194.797 41.6562 195.961 42.5 196.898 43.5938C197.852 44.6875 198.57 46 199.055 47.5312C199.539 49.0469 199.781 50.7344 199.781 52.5938V55.4062H179.625V50.9062H193.148V50.3906C193.148 49.4531 192.977 48.6172 192.633 47.8828C192.305 47.1328 191.805 46.5391 191.133 46.1016C190.461 45.6641 189.602 45.4453 188.555 45.4453C187.664 45.4453 186.898 45.6406 186.258 46.0312C185.617 46.4219 185.094 46.9688 184.688 47.6719C184.297 48.375 184 49.2031 183.797 50.1562C183.609 51.0938 183.516 52.125 183.516 53.25V54.1875C183.516 55.2031 183.656 56.1406 183.938 57C184.234 57.8594 184.648 58.6016 185.18 59.2266C185.727 59.8516 186.383 60.3359 187.148 60.6797C187.93 61.0234 188.812 61.1953 189.797 61.1953C191.016 61.1953 192.148 60.9609 193.195 60.4922C194.258 60.0078 195.172 59.2812 195.938 58.3125L199.219 61.875C198.688 62.6406 197.961 63.375 197.039 64.0781C196.133 64.7812 195.039 65.3594 193.758 65.8125C192.477 66.25 191.016 66.4688 189.375 66.4688ZM214.102 61.1953C214.93 61.1953 215.664 61.0391 216.305 60.7266C216.945 60.3984 217.445 59.9453 217.805 59.3672C218.18 58.7734 218.375 58.0781 218.391 57.2812H224.742C224.727 59.0625 224.25 60.6484 223.312 62.0391C222.375 63.4141 221.117 64.5 219.539 65.2969C217.961 66.0781 216.195 66.4688 214.242 66.4688C212.273 66.4688 210.555 66.1406 209.086 65.4844C207.633 64.8281 206.422 63.9219 205.453 62.7656C204.484 61.5938 203.758 60.2344 203.273 58.6875C202.789 57.125 202.547 55.4531 202.547 53.6719V52.9922C202.547 51.1953 202.789 49.5234 203.273 47.9766C203.758 46.4141 204.484 45.0547 205.453 43.8984C206.422 42.7266 207.633 41.8125 209.086 41.1562C210.539 40.5 212.242 40.1719 214.195 40.1719C216.273 40.1719 218.094 40.5703 219.656 41.3672C221.234 42.1641 222.469 43.3047 223.359 44.7891C224.266 46.2578 224.727 48 224.742 50.0156H218.391C218.375 49.1719 218.195 48.4062 217.852 47.7188C217.523 47.0312 217.039 46.4844 216.398 46.0781C215.773 45.6562 215 45.4453 214.078 45.4453C213.094 45.4453 212.289 45.6562 211.664 46.0781C211.039 46.4844 210.555 47.0469 210.211 47.7656C209.867 48.4688 209.625 49.2734 209.484 50.1797C209.359 51.0703 209.297 52.0078 209.297 52.9922V53.6719C209.297 54.6562 209.359 55.6016 209.484 56.5078C209.609 57.4141 209.844 58.2188 210.188 58.9219C210.547 59.625 211.039 60.1797 211.664 60.5859C212.289 60.9922 213.102 61.1953 214.102 61.1953ZM235.406 29.9766V66H228.656V29.9766H235.406ZM251.391 40.6406L240.375 53.2031L234.469 59.1797L232.008 54.3047L236.695 48.3516L243.281 40.6406H251.391ZM244.383 66L236.883 54.2812L241.547 50.2031L252.164 66H244.383Z" fill="white"/>
</svg>
